<svg id="Layer_1" data-name="Layer 1" xmlns="http://www.w3.org/2000/svg" viewBox="0 0 4096 2160"><defs><style>.cls-1,.cls-2,.cls-6{fill:none;}.cls-1,.cls-2,.cls-3,.cls-5,.cls-6{stroke:#fff;}.cls-1,.cls-2,.cls-3{stroke-width:7px;}.cls-2,.cls-5,.cls-6{stroke-miterlimit:10;}.cls-3,.cls-4,.cls-5{fill:#fff;}.cls-6{stroke-width:10px;}</style></defs><path class="cls-1" d="M1384.52,1447.2V726.8s-.28-4.74,0-12.94c-.72-137.16,71.63-196.84,142.27-224.94a299,299,0,0,1,110.57-20.84h140.86a6.14,6.14,0,0,1,6.06,6.21V1699.71a6.14,6.14,0,0,1-6.06,6.21c-33.33,0-187.1,0-175.86,0C1533.14,1698.87,1369.14,1622.63,1384.52,1447.2Z"/><circle class="cls-1" cx="1592.58" cy="1028.67" r="41.93"/><circle class="cls-1" cx="1592.58" cy="1214.98" r="41.93"/><circle class="cls-1" cx="1496.43" cy="1121.82" r="41.93"/><circle class="cls-1" cx="1689.74" cy="1121.82" r="41.93"/><rect class="cls-1" x="1684.47" y="576.87" width="65.37" height="22.15" rx="3.34"/><rect class="cls-2" x="1628.75" y="1323.56" width="67.46" height="67.46" rx="7.91"/><circle class="cls-2" cx="1662.48" cy="1356.91" r="21.97"/><circle class="cls-1" cx="1593.08" cy="778.64" r="91.38"/><circle class="cls-1" cx="1593.08" cy="778.64" r="69.39"/><line class="cls-3" x1="1593.08" y1="709.25" x2="1593.08" y2="687.26"/><line class="cls-3" x1="1662.48" y1="778.64" x2="1684.47" y2="778.64"/><line class="cls-3" x1="1593.08" y1="848.04" x2="1593.08" y2="870.03"/><line class="cls-3" x1="1523.69" y1="778.64" x2="1501.7" y2="778.64"/><path class="cls-4" d="M1591.15,1013.27l-15.51,25.3a1.9,1.9,0,0,0,1.62,2.9h31a1.91,1.91,0,0,0,1.62-2.9l-15.52-25.3A1.9,1.9,0,0,0,1591.15,1013.27Z"/><path class="cls-4" d="M1594.39,1232.22l15.52-25.31a1.9,1.9,0,0,0-1.62-2.89h-31a1.9,1.9,0,0,0-1.62,2.89l15.51,25.31A1.9,1.9,0,0,0,1594.39,1232.22Z"/><path class="cls-4" d="M1478.29,1124.36l25.31,15.52a1.9,1.9,0,0,0,2.89-1.62v-31a1.9,1.9,0,0,0-2.89-1.62l-25.31,15.51A1.9,1.9,0,0,0,1478.29,1124.36Z"/><path class="cls-4" d="M1706.25,1121.12l-25.3-15.51a1.9,1.9,0,0,0-2.9,1.62v31a1.91,1.91,0,0,0,2.9,1.62l25.3-15.52A1.9,1.9,0,0,0,1706.25,1121.12Z"/><path class="cls-1" d="M1637.59,468.08A298.93,298.93,0,0,0,1527,488.92c-51.86,20.63-104.63,58.27-128.75,131.08h-7.88c21.92-81.35,84.09-118.69,116.75-135.52,33.69-17.37,82.54-30.41,129.44-30.41h66.3v14Z"/><circle class="cls-1" cx="2509.43" cy="687.26" r="41.93"/><circle class="cls-1" cx="2509.43" cy="873.57" r="41.93"/><circle class="cls-1" cx="2413.28" cy="780.42" r="41.93"/><circle class="cls-1" cx="2606.59" cy="780.42" r="41.93"/><path class="cls-1" d="M2416.58,578.85H2400a2.88,2.88,0,0,1-2.87-2.87V559.36a2.87,2.87,0,0,0-2.86-2.87h-14.05a2.88,2.88,0,0,0-2.87,2.87V576a2.87,2.87,0,0,1-2.86,2.87h-16.62a2.87,2.87,0,0,0-2.87,2.86v14a2.88,2.88,0,0,0,2.87,2.87h16.62a2.86,2.86,0,0,1,2.86,2.86v16.62a2.88,2.88,0,0,0,2.87,2.87h14.05a2.87,2.87,0,0,0,2.86-2.87V601.49a2.87,2.87,0,0,1,2.87-2.86h16.62a2.88,2.88,0,0,0,2.87-2.87v-14A2.87,2.87,0,0,0,2416.58,578.85Z"/><circle class="cls-1" cx="2441.48" cy="1355.63" r="43.63"/><polygon class="cls-2" points="2442.49 1334.05 2422.78 1351.36 2425.69 1351.36 2425.69 1375.2 2442.49 1375.2 2459.28 1375.2 2459.28 1351.36 2462.19 1351.36 2442.49 1334.05"/><rect class="cls-5" x="2435.43" y="1354.63" width="14.12" height="12.81"/><polygon class="cls-4" points="2522.51 670.75 2516.23 670.7 2509.22 681.98 2502.21 670.7 2495.93 670.75 2505.71 686.89 2494.3 705.48 2500.57 705.53 2509.22 691.8 2517.86 705.53 2524.14 705.48 2512.73 686.89 2522.51 670.75"/><polygon class="cls-4" points="2420.28 765.76 2411.83 777.52 2403.38 765.76 2396.24 765.75 2408.97 783.42 2408.97 798.57 2414.68 798.57 2414.68 783.42 2427.42 765.75 2420.28 765.76"/><path class="cls-4" d="M2517.87,872.34c1.41-1.3,2.68-5,2.68-6.75a10.85,10.85,0,0,0-2.35-6.5,7.69,7.69,0,0,0-6.17-3h-13.89v35.06h15.14l.19,0c2.9-.39,8.43-2.3,8.6-9.84A10.4,10.4,0,0,0,2517.87,872.34Zm-5-10.55s2.1.83,2.1,4.2a4.37,4.37,0,0,1-3.14,4.21h-8v-8.41Zm0,23.64h-9V875.9h8.4s4.12,1.07,4.12,4.77C2516.37,884.72,2513.63,885.26,2512.84,885.43Z"/><path class="cls-4" d="M2610,761.45h-5l-15.13,34.06,6-.1,3.9-8.64h15.3l3.5,7.83,6,.11Zm-7.6,19.61,5.1-11.31,5.06,11.31Z"/><circle class="cls-1" cx="2509.88" cy="1121.82" r="91.38"/><circle class="cls-1" cx="2509.88" cy="1121.82" r="69.39"/><line class="cls-3" x1="2509.88" y1="1052.43" x2="2509.88" y2="1030.44"/><line class="cls-3" x1="2579.27" y1="1121.82" x2="2601.26" y2="1121.82"/><line class="cls-3" x1="2509.88" y1="1213.21" x2="2509.88" y2="1191.22"/><line class="cls-3" x1="2440.48" y1="1121.82" x2="2418.49" y2="1121.82"/><path class="cls-1" d="M2714.37,1447.2V726.8s.28-4.74,0-12.94c.72-137.16-71.63-196.84-142.27-224.94a299,299,0,0,0-110.57-20.84H2320.67a6.14,6.14,0,0,0-6.06,6.21V1699.71a6.14,6.14,0,0,0,6.06,6.21c33.33,0,187.1,0,175.86,0C2565.75,1698.87,2729.75,1622.63,2714.37,1447.2Z"/><path class="cls-1" d="M2461.53,468.08a299,299,0,0,1,110.57,20.84C2624,509.55,2676.72,547.19,2700.84,620h7.88c-21.92-81.35-84.08-118.69-116.74-135.52-33.7-17.37-82.55-30.41-129.45-30.41h-66.29v14Z"/><path class="cls-1" d="M2277,468.08H1821.85s2.8,42.24-37.57,42.24v1195.6h530.33V510.32C2274.24,510.32,2277,468.08,2277,468.08Z"/><path class="cls-1" d="M1384.52,1447.2V726.8s-.28-4.74,0-12.94a327.51,327.51,0,0,1,4.32-56.36c-31.89,23.62-72.74,71.72-105.66,169.64,0,0-90.65,188.89-116,664.23,0,0-18.67,157,97.32,198.41,0,0,95.76,54.57,186.53-60C1408.61,1588.13,1377.42,1528.25,1384.52,1447.2Z"/><path class="cls-1" d="M2924.77,1491.37c-25.33-475.34-116-664.23-116-664.23-30.27-90-67.22-137.91-97.76-163.42a334.64,334.64,0,0,1,3.34,50.14c.28,8.2,0,12.93,0,12.94v720.4c7.32,83.52-26,144.55-70.43,186.35,89.85,109.59,183.51,56.23,183.51,56.23C2943.43,1648.38,2924.77,1491.37,2924.77,1491.37Z"/><rect class="cls-4" x="1843.46" y="925.11" width="17.01" height="17.01" rx="2.04"/><rect class="cls-4" x="1843.46" y="974.16" width="17.01" height="17.01" rx="2.04"/><rect class="cls-4" x="1843.46" y="1024.46" width="17.01" height="17.01" rx="2.04"/><rect class="cls-4" x="1843.46" y="1072.98" width="17.01" height="17.01" rx="2.04"/><rect class="cls-4" x="2238.47" y="925.11" width="17.01" height="17.01" rx="2.04"/><rect class="cls-4" x="2238.47" y="974.16" width="17.01" height="17.01" rx="2.04"/><rect class="cls-4" x="2238.47" y="1024.46" width="17.01" height="17.01" rx="2.04"/><rect class="cls-4" x="2238.47" y="1072.98" width="17.01" height="17.01" rx="2.04"/><path class="cls-4" d="M1992.26,864.36a51.18,51.18,0,0,0-40.62,37.33c-1.81,6.94-1.93,11-1.73,64.8.13,49.4.17,50.55,1,54.36,4.55,20.56,19.16,35.21,39.92,40.05,2.71.62,6.16.74,28.36.86,23,.17,25.35.13,26-.49s.66-8.53.66-98.31c0-66.56-.13-97.91-.41-98.48-.41-.74-1.11-.78-25.16-.74C2000.71,863.78,1994.84,863.9,1992.26,864.36Zm37.13,98.47V1046l-16.7-.21c-15.38-.16-17-.25-20.1-1a34.79,34.79,0,0,1-25.77-26.83c-.9-4.14-.9-106.23,0-110.3A35.23,35.23,0,0,1,1988,882.2c5.42-2.17,7.92-2.42,25.48-2.46l15.88,0Z"/><path class="cls-4" d="M1995.79,904.77a21.77,21.77,0,0,0-8.62,4.31c-4.31,3.73-6.44,9-6.11,15.26a12.87,12.87,0,0,0,1.68,6.73,18.71,18.71,0,0,0,8.82,8.87c2.75,1.35,3.45,1.52,7,1.64,3.24.12,4.39,0,6.56-.74,8.91-3,14.28-11.65,12.76-20.52A18.84,18.84,0,0,0,1995.79,904.77Z"/><path class="cls-4" d="M2065.79,864c-.17.12-.29,44.6-.29,98.84,0,89.5,0,98.56.66,98.81,1.11.41,33,.25,36.89-.16a51.23,51.23,0,0,0,39.35-27.09,60.05,60.05,0,0,0,3.07-7.18c2.59-7.71,2.51-5.66,2.51-64.62,0-47.07-.08-54.08-.66-57.08a51,51,0,0,0-41.77-41.2c-2.87-.49-7.3-.61-21.58-.61C2074.12,863.7,2065.91,863.82,2065.79,864Zm43.82,89.36a20.09,20.09,0,0,1,13.79,12.81,21.52,21.52,0,0,1,0,13.05,19.91,19.91,0,0,1-37.92-1,23.5,23.5,0,0,1,.17-11.57A19.93,19.93,0,0,1,2109.61,953.35Z"/><path class="cls-4" d="M2178.05,1091.59a13.22,13.22,0,0,0-9.06,14.86,12.58,12.58,0,0,0,6.89,9.56,12.74,12.74,0,0,0,14.69-1.81,12.14,12.14,0,0,0,4.39-9.84,12.35,12.35,0,0,0-3.73-9.4C2188,1091.72,2182.16,1090.24,2178.05,1091.59Zm7.27,6a7.1,7.1,0,0,1,4,6.12c.24,3.65-1.31,6.28-4.56,7.63-5.49,2.3-11.73-3-10.17-8.7a6.84,6.84,0,0,1,3.81-5A7.85,7.85,0,0,1,2185.32,1097.58Z"/><path class="cls-4" d="M1903,1104.36v12.55l2.59-.12,2.54-.12.21-7.92.2-7.92,6,8,6,8,2.46-.08,2.47-.12v-24.62l-2.55-.13-2.58-.12V1108l-6-8.09-6.07-8.08H1903Z"/><path class="cls-4" d="M1944.05,1104.36v12.51h5.33v-25h-5.33Z"/><path class="cls-4" d="M1968.05,1092.37c-.12.29-.16,5.87-.12,12.4l.12,11.9,2.58.12,2.55.12v-16.62l6.15,8.29,6.16,8.29h4.92v-25h-5.33l-.08,7.88-.13,7.88-5.91-7.88-5.86-7.88h-2.42C1969.08,1091.84,1968.17,1092,1968.05,1092.37Z"/><path class="cls-4" d="M2007.93,1092.13a7.57,7.57,0,0,0-.28,2.66v2.38h8.2v19.7h5.34v-19.7H2029v-5.33H2018.6A99.63,99.63,0,0,0,2007.93,1092.13Z"/><path class="cls-4" d="M2047,1104.36v12.51h19.28V1112H2052v-5.75h13.13v-4.51H2052v-4.93l7.1-.08,7.06-.12.12-2.38.12-2.34H2047Z"/><path class="cls-4" d="M2086.63,1092.37c-.12.29-.16,5.87-.12,12.4l.12,11.9,2.59.12,2.54.12v-16.62l6.16,8.29,6.15,8.29H2109v-25h-5.34l-.08,7.88-.12,7.88-5.91-7.88-5.87-7.88h-2.42C2087.66,1091.84,2086.76,1092,2086.63,1092.37Z"/><path class="cls-4" d="M2129.92,1104.31v12.56h5.46c6.32,0,9.31-.62,12-2.5,8-5.5,6.77-17.28-2.21-21.42-1.69-.78-2.83-.9-8.58-1l-6.69-.16Zm13.42-6.36a7.24,7.24,0,0,1,3.2,9.65c-1.31,2.7-4,3.94-8.66,3.94h-3v-14.37h3.4A12.37,12.37,0,0,1,2143.34,1098Z"/><path class="cls-4" d="M2117.53,1128a24.92,24.92,0,0,0-14.28,42.22,22.23,22.23,0,0,0,11.33,6.57,24.75,24.75,0,0,0,21.42-4.31c2.42-1.81,5.58-5.33,5.33-6-.08-.16-1.76-1.68-3.77-3.45l-3.62-3.16-1.1,1.44a15,15,0,0,1-22.2,1.48,18.32,18.32,0,0,1-2.75-3.78c-1-2-1.15-2.58-1.15-6.28,0-3.53.12-4.39,1-6.15a14.89,14.89,0,0,1,17.07-7.8,16,16,0,0,1,7.71,4.84l1.39,1.69,1.81-1.48c1-.78,2.71-2.3,3.82-3.28l2-1.85-1.6-2A25.24,25.24,0,0,0,2117.53,1128Z"/><path class="cls-4" d="M1914.58,1129.59c-9.76,2.59-14.81,9.11-12.63,16.5,1.55,5.45,6.72,8.12,20.47,10.58,9.23,1.64,11.94,3,11.94,5.91,0,2-1.19,3.49-3.77,4.68-2.22,1-2.71,1.11-8.29,1.11-6.61,0-9.19-.54-14.08-2.75a12.58,12.58,0,0,0-2.91-1.11c-.49.61-4.39,7.88-4.27,8,.41.45,7,2.83,9.69,3.57,4.51,1.19,14.15,1.48,19.08.57,9.19-1.72,13.74-5.95,14.15-13,.33-5.87-1.31-8.91-6.36-11.53-3.61-1.89-6.73-2.8-14.69-4.4-6.93-1.35-8.9-2-10.34-3.36a3.27,3.27,0,0,1,0-4.64c3-3,13.54-3.07,21.75-.2a6.12,6.12,0,0,0,2.75.53,77.53,77.53,0,0,0,3.24-7.67c0-.37-6.28-2.22-9.8-2.87C1925.79,1128.52,1918.4,1128.61,1914.58,1129.59Z"/><path class="cls-4" d="M1949.54,1129.88c.13.41,3,10.63,6.4,22.69s6.28,22.28,6.41,22.65c.2.66.86.74,5.9.74H1974l.45-1.56c4.06-14.69,8.16-28.48,8.37-28,.12.33,2,7.06,4.27,15l4,14.36,5.74.13,5.75.12,6.52-22.9c3.57-12.59,6.57-23.14,6.69-23.43s-1-.49-5-.49h-5.12l-.58,1.93c-.33,1.11-2.3,8.49-4.39,16.41s-3.94,14.49-4.1,14.49-2-6.24-4.27-13.87-4.39-15-4.84-16.42l-.78-2.58-4.19.12-4.18.13-4.8,16.41c-2.63,9-4.8,16.49-4.85,16.62s-1.88-6.53-4.06-14.78-4.26-15.75-4.51-16.74l-.49-1.72h-5.13C1949.75,1129.18,1949.34,1129.22,1949.54,1129.88Z"/><path class="cls-4" d="M2027.34,1152.57V1176H2038l-.08-23.31-.13-23.26-5.21-.13-5.25-.12Z"/><path class="cls-4" d="M2049.09,1134.31v5.13h14.77V1176h10.26v-36.52l7.3-.08,7.27-.13v-9.84l-19.78-.13-19.82-.08Z"/><path class="cls-4" d="M2152.08,1152.57V1176h9.85v-18.47h21.75V1176h9.84l-.08-23.31-.12-23.26-4.8-.13-4.84-.12v18.5h-21.75v-18.46h-9.85Z"/><polyline class="cls-2" points="2699.16 482.5 2869.97 311.69 3103.19 311.69"/><polyline class="cls-2" points="1413.14 482.5 1240.6 309.96 1007.38 309.96"/><polyline class="cls-2" points="2583.11 852.68 2656.26 925.83 3026.34 925.83"/><polyline class="cls-2" points="1507.88 856.12 1437.84 926.16 1067.75 926.16"/><polyline class="cls-2" points="2388.11 537.03 2388.11 377.47 2546.89 218.69"/><polyline class="cls-2" points="1717.15 537.03 1717.15 377.47 1558.38 218.69"/><polyline class="cls-2" points="1519.97 1191.25 1313.19 1398.04 775.15 1398.04"/><polyline class="cls-2" points="2601.06 1213.21 2789.89 1402.04 3327.93 1402.04"/><path class="cls-4" d="M855.73,268.12V221.18h10.84V258.6h22.74v9.52Z"/><path class="cls-4" d="M3225.71,268.85V222.56h20.87a13.48,13.48,0,0,1,6,1.37,15.94,15.94,0,0,1,4.79,3.59,16.72,16.72,0,0,1,3.16,5,15,15,0,0,1,1.14,5.67,16.2,16.2,0,0,1-.52,4.14,15.72,15.72,0,0,1-1.5,3.75,13.94,13.94,0,0,1-2.38,3.16,13.73,13.73,0,0,1-3.16,2.38l10.17,17.21h-12.06l-8.87-14.93h-7v14.93Zm10.7-24.25h9.78a4,4,0,0,0,3.26-1.79,7.4,7.4,0,0,0,1.37-4.6,6.48,6.48,0,0,0-1.57-4.56,4.58,4.58,0,0,0-3.39-1.7h-9.45Z"/><path class="cls-2" d="M3144.95,207.53h139.11a54.68,54.68,0,0,1,54.68,54.68v25.58a0,0,0,0,1,0,0H3144.95a0,0,0,0,1,0,0V207.53A0,0,0,0,1,3144.95,207.53Z"/><path class="cls-4" d="M3197.26,394.54,3223.6,363h-25.34V352.76h38.79v8.75L3212,393h25.34v10.25h-40.07Z"/><path class="cls-4" d="M3243.92,403.29V359.81h19.59a12.62,12.62,0,0,1,5.67,1.29,15.15,15.15,0,0,1,4.5,3.36,16.1,16.1,0,0,1,3,4.72,14.12,14.12,0,0,1,1.07,5.33,15.19,15.19,0,0,1-.49,3.89,15.42,15.42,0,0,1-1.41,3.52,13.59,13.59,0,0,1-2.23,3,13.28,13.28,0,0,1-3,2.23l9.55,16.17h-11.33l-8.33-14H3254v14Zm10-22.78h9.18a3.78,3.78,0,0,0,3.07-1.68,7,7,0,0,0,1.28-4.32,6.07,6.07,0,0,0-1.47-4.29,4.31,4.31,0,0,0-3.18-1.59H3254Z"/><path class="cls-2" d="M3143.56,315.13h195.17a0,0,0,0,1,0,0v61.52a65.85,65.85,0,0,1-65.85,65.85H3143.56a0,0,0,0,1,0,0V315.13A0,0,0,0,1,3143.56,315.13Z"/><path class="cls-4" d="M831.54,394.54,857.87,363H832.54V352.76h38.78v8.75L846.27,393h25.34v10.25H831.54Z"/><path class="cls-4" d="M878.19,403.29V359.81h10v34.66H909.3v8.82Z"/><path class="cls-2" d="M772.83,315.13H902.16A65.85,65.85,0,0,1,968,381v61.52a0,0,0,0,1,0,0H772.83a0,0,0,0,1,0,0V315.13A0,0,0,0,1,772.83,315.13Z" transform="translate(1740.84 757.62) rotate(180)"/><path class="cls-2" d="M772.83,205.71h196.5a0,0,0,0,1,0,0v25.94a55.44,55.44,0,0,1-55.44,55.44H772.83a0,0,0,0,1,0,0V205.71A0,0,0,0,1,772.83,205.71Z" transform="translate(1742.16 492.81) rotate(180)"/><circle class="cls-6" cx="3081.96" cy="722.03" r="51.33"/><circle class="cls-6" cx="3083.06" cy="859.23" r="52.42"/><circle class="cls-6" cx="3083.39" cy="993.35" r="52.09"/><circle class="cls-6" cx="3081.96" cy="1127.46" r="53.51"/><path class="cls-4" d="M3093.29,721c1.84-1.7,3.49-6.54,3.49-8.84a14.22,14.22,0,0,0-3.06-8.5,10,10,0,0,0-8-3.94h-18v45.88h19.65l.25,0c3.76-.51,10.94-3,11.16-12.89C3098.87,727.41,3096.42,723,3093.29,721Zm-6.51-13.81s2.72,1.09,2.73,5.5a5.74,5.74,0,0,1-4.08,5.51H3075.1v-11Zm0,30.94H3075.1V725.61H3086s5.35,1.4,5.35,6.24C3091.35,737.15,3087.79,737.86,3086.77,738.08Z"/><path class="cls-4" d="M3086.79,835.19h-6.59l-20,45.52,8-.14L3073.3,869h20.27l4.65,10.47,8,.15Zm-10.08,26.21,6.77-15.12,6.71,15.12Z"/><polygon class="cls-4" points="3093.67 972.19 3082.54 987.8 3071.4 972.19 3062 972.17 3078.78 995.64 3078.78 1015.75 3086.3 1015.75 3086.3 995.64 3103.07 972.17 3093.67 972.19"/><polygon class="cls-4" points="3100.23 1104.81 3091.74 1104.73 3082.25 1120.13 3072.76 1104.73 3064.26 1104.81 3077.5 1126.83 3062.05 1152.19 3070.55 1152.27 3082.25 1133.53 3093.95 1152.27 3102.44 1152.19 3086.99 1126.83 3100.23 1104.81"/><circle class="cls-1" cx="764.43" cy="1165.62" r="18.5"/><circle class="cls-1" cx="682.24" cy="1165.62" r="18.5"/><path class="cls-4" d="M723.33,1145.2a22,22,0,1,1,22-22A22,22,0,0,1,723.33,1145.2Zm0-37a15,15,0,1,0,15,15A15,15,0,0,0,723.33,1108.2Z"/><circle class="cls-1" cx="723.33" cy="1208.48" r="18.5"/><path class="cls-4" d="M771.22,1165l-11.16-6.84a.84.84,0,0,0-1.28.71v13.69a.84.84,0,0,0,1.28.71l11.16-6.84A.83.83,0,0,0,771.22,1165Z"/><path class="cls-4" d="M674.63,1166.42l11.17,6.84a.83.83,0,0,0,1.27-.71v-13.69a.83.83,0,0,0-1.27-.71L674.63,1165A.84.84,0,0,0,674.63,1166.42Z"/><path class="cls-4" d="M723.33,1104.7a18.5,18.5,0,1,0,18.5,18.5A18.51,18.51,0,0,0,723.33,1104.7Zm6.44,22.94H716.08a.84.84,0,0,1-.71-1.27l6.84-11.17a.84.84,0,0,1,1.43,0l6.85,11.17A.84.84,0,0,1,729.77,1127.64Z"/><path class="cls-4" d="M723.64,1215.77l6.85-11.17a.83.83,0,0,0-.72-1.27H716.08a.83.83,0,0,0-.71,1.27l6.84,11.17A.84.84,0,0,0,723.64,1215.77Z"/><circle class="cls-1" cx="723.93" cy="1361.92" r="18.5"/><circle class="cls-1" cx="723.93" cy="1279.73" r="18.5"/><path class="cls-4" d="M744.35,1320.83a22,22,0,1,1,22,22A22,22,0,0,1,744.35,1320.83Zm37,0a15,15,0,1,0-15,15A15,15,0,0,0,781.35,1320.83Z"/><circle class="cls-1" cx="681.07" cy="1320.83" r="18.5"/><path class="cls-4" d="M724.56,1368.72l6.84-11.17a.83.83,0,0,0-.71-1.27H717a.83.83,0,0,0-.71,1.27l6.84,11.17A.84.84,0,0,0,724.56,1368.72Z"/><path class="cls-4" d="M723.13,1272.13l-6.84,11.16a.84.84,0,0,0,.71,1.28h13.69a.83.83,0,0,0,.71-1.28l-6.84-11.16A.83.83,0,0,0,723.13,1272.13Z"/><path class="cls-4" d="M784.85,1320.83a18.5,18.5,0,1,0-18.5,18.5A18.5,18.5,0,0,0,784.85,1320.83Zm-22.94,6.44v-13.69a.84.84,0,0,1,1.27-.72l11.17,6.85a.84.84,0,0,1,0,1.43L763.18,1328A.84.84,0,0,1,761.91,1327.27Z"/><path class="cls-4" d="M673.78,1321.14,685,1328a.83.83,0,0,0,1.27-.71v-13.69a.83.83,0,0,0-1.27-.72l-11.17,6.85A.84.84,0,0,0,673.78,1321.14Z"/><circle class="cls-1" cx="684.36" cy="1475.98" r="18.5"/><circle class="cls-1" cx="766.55" cy="1475.98" r="18.5"/><path class="cls-4" d="M725.46,1496.4a22,22,0,1,1-22,22A22,22,0,0,1,725.46,1496.4Zm0,37a15,15,0,1,0-15-15A15,15,0,0,0,725.46,1533.4Z"/><circle class="cls-1" cx="725.46" cy="1433.12" r="18.5"/><path class="cls-4" d="M677.57,1476.61l11.16,6.85a.84.84,0,0,0,1.28-.72v-13.69a.84.84,0,0,0-1.28-.71l-11.16,6.84A.83.83,0,0,0,677.57,1476.61Z"/><path class="cls-4" d="M774.16,1475.18,763,1468.34a.84.84,0,0,0-1.27.71v13.69a.84.84,0,0,0,1.27.72l11.17-6.85A.84.84,0,0,0,774.16,1475.18Z"/><path class="cls-4" d="M725.46,1536.9a18.5,18.5,0,1,0-18.5-18.5A18.5,18.5,0,0,0,725.46,1536.9ZM719,1514h13.69a.84.84,0,0,1,.71,1.28l-6.84,11.16a.84.84,0,0,1-1.43,0l-6.85-11.16A.84.84,0,0,1,719,1514Z"/><path class="cls-4" d="M725.15,1425.84,718.3,1437a.84.84,0,0,0,.72,1.28h13.69a.84.84,0,0,0,.71-1.28l-6.84-11.16A.83.83,0,0,0,725.15,1425.84Z"/><circle class="cls-1" cx="726.99" cy="1593.1" r="18.5"/><circle class="cls-1" cx="726.99" cy="1675.28" r="18.5"/><path class="cls-4" d="M706.57,1634.19a22,22,0,1,1-22-22A22,22,0,0,1,706.57,1634.19Zm-37,0a15,15,0,1,0,15-15A15,15,0,0,0,669.57,1634.19Z"/><circle class="cls-1" cx="769.85" cy="1634.19" r="18.5"/><path class="cls-4" d="M726.36,1586.3l-6.85,11.16a.84.84,0,0,0,.72,1.28h13.68a.84.84,0,0,0,.72-1.28l-6.85-11.16A.83.83,0,0,0,726.36,1586.3Z"/><path class="cls-4" d="M727.78,1682.89l6.85-11.16a.84.84,0,0,0-.72-1.28H720.23a.84.84,0,0,0-.72,1.28l6.85,11.16A.83.83,0,0,0,727.78,1682.89Z"/><path class="cls-4" d="M666.07,1634.19a18.5,18.5,0,1,0,18.5-18.5A18.5,18.5,0,0,0,666.07,1634.19Zm22.94-6.44v13.69a.83.83,0,0,1-1.28.71l-11.16-6.84a.83.83,0,0,1,0-1.43l11.16-6.84A.84.84,0,0,1,689,1627.75Z"/><path class="cls-4" d="M777.13,1633.88,766,1627a.84.84,0,0,0-1.28.71v13.69a.83.83,0,0,0,1.28.71l11.16-6.84A.84.84,0,0,0,777.13,1633.88Z"/></svg>