<svg xmlns="http://www.w3.org/2000/svg" viewBox="0 0 4096 2160"><defs><style>.cls-1,.cls-2,.cls-6{fill:none;}.cls-1,.cls-2,.cls-3,.cls-5,.cls-6{stroke:#fff;}.cls-1,.cls-2,.cls-3{stroke-width:7px;}.cls-2,.cls-5,.cls-6{stroke-miterlimit:10;}.cls-3,.cls-4,.cls-5{fill:#fff;}.cls-6{stroke-width:10px;}</style></defs><g id="Layer_1" data-name="Layer 1"><path class="cls-1" d="M1221.6,1447.2V726.8s-.28-4.74,0-12.94c-.72-137.16,71.63-196.84,142.27-224.94a298.94,298.94,0,0,1,110.57-20.84h140.85a6.14,6.14,0,0,1,6.07,6.21V1699.71a6.14,6.14,0,0,1-6.07,6.21c-33.32,0-187.09,0-175.85,0C1370.22,1698.87,1206.22,1622.63,1221.6,1447.2Z"/><circle class="cls-1" cx="1429.66" cy="1028.67" r="41.93"/><circle class="cls-1" cx="1429.66" cy="1214.98" r="41.93"/><circle class="cls-1" cx="1333.51" cy="1121.82" r="41.93"/><circle class="cls-1" cx="1526.82" cy="1121.82" r="41.93"/><rect class="cls-1" x="1521.55" y="576.87" width="65.37" height="22.15" rx="3.34"/><rect class="cls-2" x="1465.82" y="1323.56" width="67.46" height="67.46" rx="7.91"/><circle class="cls-2" cx="1499.55" cy="1356.91" r="21.97"/><circle class="cls-1" cx="1430.16" cy="778.64" r="91.38"/><circle class="cls-1" cx="1430.16" cy="778.64" r="69.39"/><line class="cls-3" x1="1430.16" y1="709.25" x2="1430.16" y2="687.26"/><line class="cls-3" x1="1499.55" y1="778.64" x2="1521.55" y2="778.64"/><line class="cls-3" x1="1430.16" y1="848.04" x2="1430.16" y2="870.03"/><line class="cls-3" x1="1360.77" y1="778.64" x2="1338.78" y2="778.64"/><path class="cls-4" d="M1428.23,1013.27l-15.52,25.3a1.91,1.91,0,0,0,1.62,2.9h31a1.9,1.9,0,0,0,1.62-2.9l-15.51-25.3A1.9,1.9,0,0,0,1428.23,1013.27Z"/><path class="cls-4" d="M1431.47,1232.22l15.51-25.31a1.9,1.9,0,0,0-1.62-2.89h-31a1.9,1.9,0,0,0-1.62,2.89l15.52,25.31A1.9,1.9,0,0,0,1431.47,1232.22Z"/><path class="cls-4" d="M1315.37,1124.36l25.31,15.52a1.9,1.9,0,0,0,2.89-1.62v-31a1.9,1.9,0,0,0-2.89-1.62l-25.31,15.51A1.9,1.9,0,0,0,1315.37,1124.36Z"/><path class="cls-4" d="M1543.33,1121.12,1518,1105.61a1.9,1.9,0,0,0-2.89,1.62v31a1.9,1.9,0,0,0,2.89,1.62l25.31-15.52A1.9,1.9,0,0,0,1543.33,1121.12Z"/><path class="cls-1" d="M1474.67,468.08a299,299,0,0,0-110.57,20.84c-51.85,20.63-104.62,58.27-128.74,131.08h-7.88c21.92-81.35,84.09-118.69,116.74-135.52,33.7-17.37,82.55-30.41,129.45-30.41H1540v14Z"/><path class="cls-1" d="M1622.54,541.26h12.64V537h22.15V719.68l-7.51,20.18-.4,8.3,1.53.39a8.42,8.42,0,0,1,6.38,8.17v84.59a8.43,8.43,0,0,1-6.56,8.22l-1.35.3,7.91,24.14v349.32l-8.7,23.73,5.23,3.81a8.42,8.42,0,0,1,3.47,6.81v83.07a8.43,8.43,0,0,1-4.65,7.54l-4,2,8.7,26.91v205.71h-15.82l-7.12-9.89v-43.12h-14.22Z"/><line class="cls-1" x1="1649.42" y1="748.16" x2="1649.42" y2="849.83"/><line class="cls-1" x1="1648.63" y1="1247.02" x2="1648.63" y2="1350.27"/><circle class="cls-1" cx="2669.47" cy="687.26" r="41.93"/><circle class="cls-1" cx="2669.47" cy="873.57" r="41.93"/><circle class="cls-1" cx="2573.31" cy="780.42" r="41.93"/><circle class="cls-1" cx="2766.62" cy="780.42" r="41.93"/><path class="cls-1" d="M2576.61,578.85H2560a2.87,2.87,0,0,1-2.87-2.87V559.36a2.88,2.88,0,0,0-2.87-2.87h-14a2.87,2.87,0,0,0-2.87,2.87V576a2.88,2.88,0,0,1-2.87,2.87h-16.62a2.86,2.86,0,0,0-2.86,2.86v14a2.87,2.87,0,0,0,2.86,2.87h16.62a2.87,2.87,0,0,1,2.87,2.86v16.62a2.87,2.87,0,0,0,2.87,2.87h14a2.88,2.88,0,0,0,2.87-2.87V601.49a2.86,2.86,0,0,1,2.87-2.86h16.61a2.88,2.88,0,0,0,2.87-2.87v-14A2.87,2.87,0,0,0,2576.61,578.85Z"/><circle class="cls-1" cx="2601.52" cy="1355.63" r="43.63"/><polygon class="cls-2" points="2602.52 1334.05 2582.82 1351.36 2585.72 1351.36 2585.72 1375.2 2602.52 1375.2 2619.31 1375.2 2619.31 1351.36 2622.22 1351.36 2602.52 1334.05"/><rect class="cls-5" x="2595.46" y="1354.63" width="14.12" height="12.81"/><polygon class="cls-4" points="2682.54 670.75 2676.27 670.7 2669.25 681.98 2662.24 670.7 2655.96 670.75 2665.75 686.89 2654.33 705.48 2660.61 705.53 2669.25 691.8 2677.9 705.53 2684.17 705.48 2672.76 686.89 2682.54 670.75"/><polygon class="cls-4" points="2580.31 765.76 2571.86 777.52 2563.41 765.76 2556.27 765.75 2569.01 783.42 2569.01 798.57 2574.71 798.57 2574.71 783.42 2587.45 765.75 2580.31 765.76"/><path class="cls-4" d="M2677.9,872.34c1.41-1.3,2.68-5,2.68-6.75a10.79,10.79,0,0,0-2.35-6.5,7.69,7.69,0,0,0-6.17-3h-13.89v35.06h15.15l.19,0c2.9-.39,8.43-2.3,8.6-9.84A10.41,10.41,0,0,0,2677.9,872.34Zm-5-10.55s2.1.83,2.1,4.2a4.37,4.37,0,0,1-3.14,4.21h-8v-8.41Zm0,23.64h-9V875.9h8.4s4.12,1.07,4.12,4.77C2676.4,884.72,2673.66,885.26,2672.87,885.43Z"/><path class="cls-4" d="M2770,761.45h-5l-15.12,34.06,6-.1,3.9-8.64h15.29l3.5,7.83,6,.11Zm-7.61,19.61,5.11-11.31,5.06,11.31Z"/><circle class="cls-1" cx="2669.91" cy="1121.82" r="91.38"/><circle class="cls-1" cx="2669.91" cy="1121.82" r="69.39"/><line class="cls-3" x1="2669.91" y1="1052.43" x2="2669.91" y2="1030.44"/><line class="cls-3" x1="2739.3" y1="1121.82" x2="2761.29" y2="1121.82"/><line class="cls-3" x1="2669.91" y1="1213.21" x2="2669.91" y2="1191.22"/><line class="cls-3" x1="2600.52" y1="1121.82" x2="2578.53" y2="1121.82"/><path class="cls-1" d="M2874.4,1447.2V726.8s.28-4.74,0-12.94c.72-137.16-71.63-196.84-142.27-224.94a298.94,298.94,0,0,0-110.57-20.84H2480.71a6.14,6.14,0,0,0-6.07,6.21V1699.71a6.14,6.14,0,0,0,6.07,6.21c33.32,0,187.09,0,175.85,0C2725.78,1698.87,2889.78,1622.63,2874.4,1447.2Z"/><path class="cls-1" d="M2621.56,468.08a298.94,298.94,0,0,1,110.57,20.84C2784,509.55,2836.76,547.19,2860.88,620h7.87c-21.91-81.35-84.08-118.69-116.74-135.52-33.69-17.37-82.54-30.41-129.45-30.41h-66.29v14Z"/><path class="cls-1" d="M2472.27,541.26h-12.64V537h-22.15V719.68l7.52,20.18.39,8.3-1.53.39a8.42,8.42,0,0,0-6.38,8.17v84.59a8.43,8.43,0,0,0,6.56,8.22l1.35.3L2437.48,874v349.32l8.7,23.73-5.23,3.81a8.42,8.42,0,0,0-3.47,6.81v83.07a8.42,8.42,0,0,0,4.66,7.54l4,2-8.7,26.91v205.71h15.82l7.12-9.89v-43.12h14.22Z"/><line class="cls-1" x1="2445.39" y1="748.16" x2="2445.39" y2="849.83"/><line class="cls-1" x1="2446.18" y1="1247.02" x2="2446.18" y2="1350.27"/></g><g id="Layer_3" data-name="Layer 3"><polyline class="cls-2" points="2855.35 482.5 3026.17 311.69 3259.39 311.69"/><polyline class="cls-2" points="1248.83 482.5 1076.29 309.96 843.07 309.96"/><polyline class="cls-2" points="2739.3 852.68 2812.45 925.83 3182.54 925.83"/><polyline class="cls-2" points="1343.57 856.12 1273.53 926.16 903.44 926.16"/><polyline class="cls-2" points="2547.24 537.03 2547.24 377.47 2706.01 218.69"/><polyline class="cls-2" points="1557.67 537.03 1557.67 377.47 1398.89 218.69"/><polyline class="cls-2" points="2757.26 1213.21 2946.08 1402.04 3484.13 1402.04"/><path class="cls-4" d="M691.42,268.12V221.18h10.84V258.6H725v9.52Z"/><path class="cls-4" d="M3381.91,268.85V222.56h20.86a13.49,13.49,0,0,1,6,1.37,16.07,16.07,0,0,1,4.79,3.59,16.92,16.92,0,0,1,3.16,5,15,15,0,0,1,1.14,5.67,16.11,16.11,0,0,1-2,7.89,14.24,14.24,0,0,1-2.38,3.16,13.94,13.94,0,0,1-3.16,2.38l10.17,17.21h-12.06l-8.87-14.93h-7v14.93Zm10.69-24.25h9.78a4,4,0,0,0,3.26-1.79,7.33,7.33,0,0,0,1.37-4.6,6.47,6.47,0,0,0-1.56-4.56,4.61,4.61,0,0,0-3.39-1.7h-9.46Z"/><path class="cls-2" d="M3301.15,207.53h139.11a54.68,54.68,0,0,1,54.68,54.68v25.58a0,0,0,0,1,0,0H3301.15a0,0,0,0,1,0,0V207.53A0,0,0,0,1,3301.15,207.53Z"/><path class="cls-4" d="M3353.46,394.54,3379.79,363h-25.34V352.76h38.79v8.75l-25,31.53h25.34v10.25h-40.07Z"/><path class="cls-4" d="M3400.11,403.29V359.81h19.6a12.55,12.55,0,0,1,5.66,1.29,14.9,14.9,0,0,1,4.5,3.36,15.7,15.7,0,0,1,3,4.72,14,14,0,0,1,1.08,5.33,15.65,15.65,0,0,1-.49,3.89,15.42,15.42,0,0,1-1.41,3.52,13.29,13.29,0,0,1-5.21,5.2l9.56,16.17H3425l-8.33-14h-6.55v14Zm10-22.78h9.18a3.77,3.77,0,0,0,3.06-1.68,6.93,6.93,0,0,0,1.29-4.32,6.07,6.07,0,0,0-1.47-4.29,4.31,4.31,0,0,0-3.19-1.59h-8.87Z"/><path class="cls-2" d="M3299.76,315.13h195.17a0,0,0,0,1,0,0v61.52a65.85,65.85,0,0,1-65.85,65.85H3299.76a0,0,0,0,1,0,0V315.13A0,0,0,0,1,3299.76,315.13Z"/><path class="cls-4" d="M667.23,394.54,693.56,363H668.23V352.76H707v8.75L682,393H707.3v10.25H667.23Z"/><path class="cls-4" d="M713.88,403.29V359.81h10v34.66H745v8.82Z"/><path class="cls-2" d="M608.53,315.13H737.85A65.85,65.85,0,0,1,803.7,381v61.52a0,0,0,0,1,0,0H608.53a0,0,0,0,1,0,0V315.13a0,0,0,0,1,0,0Z" transform="translate(1412.22 757.62) rotate(180)"/><path class="cls-2" d="M608.53,205.71H805a0,0,0,0,1,0,0v25.94a55.44,55.44,0,0,1-55.44,55.44H608.53a0,0,0,0,1,0,0V205.71A0,0,0,0,1,608.53,205.71Z" transform="translate(1413.55 492.81) rotate(180)"/><circle class="cls-6" cx="3238.16" cy="722.03" r="51.33"/><circle class="cls-6" cx="3239.25" cy="859.23" r="52.42"/><circle class="cls-6" cx="3239.59" cy="993.35" r="52.09"/><circle class="cls-6" cx="3238.16" cy="1127.46" r="53.51"/><path class="cls-4" d="M3249.49,721c1.83-1.7,3.48-6.54,3.48-8.84a14.22,14.22,0,0,0-3-8.5,10,10,0,0,0-8-3.94h-18v45.88h19.66l.25,0c3.76-.51,10.94-3,11.16-12.89C3255.07,727.41,3252.61,723,3249.49,721ZM3243,707.14s2.72,1.09,2.72,5.5a5.72,5.72,0,0,1-4.08,5.51h-10.33v-11Zm0,30.94h-11.68V725.61h10.9s5.36,1.4,5.36,6.24C3247.55,737.15,3244,737.86,3243,738.08Z"/><path class="cls-4" d="M3243,835.19h-6.6l-20,45.52,8-.14,5.17-11.55h20.28l4.64,10.47,8,.15Zm-10.08,26.21,6.77-15.12,6.71,15.12Z"/><polygon class="cls-4" points="3249.86 972.19 3238.73 987.8 3227.6 972.19 3218.19 972.17 3234.97 995.64 3234.97 1015.75 3242.49 1015.75 3242.49 995.64 3259.27 972.17 3249.86 972.19"/><polygon class="cls-4" points="3256.43 1104.81 3247.94 1104.73 3238.44 1120.13 3228.95 1104.73 3220.46 1104.81 3233.7 1126.83 3218.25 1152.19 3226.74 1152.27 3238.44 1133.53 3250.14 1152.27 3258.64 1152.19 3243.19 1126.83 3256.43 1104.81"/><polyline class="cls-2" points="1362.49 1193.02 1155.7 1399.8 617.66 1399.8"/><circle class="cls-1" cx="606.94" cy="1167.39" r="18.5"/><circle class="cls-1" cx="524.75" cy="1167.39" r="18.5"/><path class="cls-4" d="M565.84,1147a22,22,0,1,1,22-22A22,22,0,0,1,565.84,1147Zm0-37a15,15,0,1,0,15,15A15,15,0,0,0,565.84,1110Z"/><circle class="cls-1" cx="565.84" cy="1210.25" r="18.5"/><path class="cls-4" d="M613.73,1166.75l-11.16-6.84a.84.84,0,0,0-1.28.71v13.69a.84.84,0,0,0,1.28.72l11.16-6.85A.83.83,0,0,0,613.73,1166.75Z"/><path class="cls-4" d="M517.14,1168.18l11.17,6.85a.83.83,0,0,0,1.27-.72v-13.69a.83.83,0,0,0-1.27-.71l-11.17,6.84A.84.84,0,0,0,517.14,1168.18Z"/><path class="cls-4" d="M565.84,1106.47a18.5,18.5,0,1,0,18.5,18.5A18.5,18.5,0,0,0,565.84,1106.47Zm6.44,22.94H558.59a.84.84,0,0,1-.71-1.28l6.84-11.16a.83.83,0,0,1,1.43,0l6.85,11.16A.84.84,0,0,1,572.28,1129.41Z"/><path class="cls-4" d="M566.15,1217.53l6.85-11.16a.84.84,0,0,0-.72-1.28H558.59a.84.84,0,0,0-.71,1.28l6.84,11.16A.84.84,0,0,0,566.15,1217.53Z"/><circle class="cls-1" cx="566.44" cy="1363.69" r="18.5"/><circle class="cls-1" cx="566.44" cy="1281.5" r="18.5"/><path class="cls-4" d="M586.86,1322.59a22,22,0,1,1,22,22A22,22,0,0,1,586.86,1322.59Zm37,0a15,15,0,1,0-15,15A15,15,0,0,0,623.86,1322.59Z"/><circle class="cls-1" cx="523.58" cy="1322.59" r="18.5"/><path class="cls-4" d="M567.07,1370.48l6.85-11.16a.84.84,0,0,0-.72-1.28H559.51a.84.84,0,0,0-.71,1.28l6.84,11.16A.83.83,0,0,0,567.07,1370.48Z"/><path class="cls-4" d="M565.64,1273.89l-6.84,11.17a.84.84,0,0,0,.71,1.27H573.2a.84.84,0,0,0,.72-1.27l-6.85-11.17A.84.84,0,0,0,565.64,1273.89Z"/><path class="cls-4" d="M627.36,1322.59a18.5,18.5,0,1,0-18.5,18.5A18.5,18.5,0,0,0,627.36,1322.59ZM604.42,1329v-13.69a.84.84,0,0,1,1.28-.71l11.16,6.84a.84.84,0,0,1,0,1.43l-11.16,6.85A.84.84,0,0,1,604.42,1329Z"/><path class="cls-4" d="M516.3,1322.9l11.16,6.85a.84.84,0,0,0,1.28-.72v-13.69a.84.84,0,0,0-1.28-.71l-11.16,6.84A.83.83,0,0,0,516.3,1322.9Z"/><circle class="cls-1" cx="526.87" cy="1477.74" r="18.5"/><circle class="cls-1" cx="609.06" cy="1477.74" r="18.5"/><path class="cls-4" d="M568,1498.16a22,22,0,1,1-22,22A22,22,0,0,1,568,1498.16Zm0,37a15,15,0,1,0-15-15A15,15,0,0,0,568,1535.16Z"/><circle class="cls-1" cx="567.97" cy="1434.88" r="18.5"/><path class="cls-4" d="M520.08,1478.38l11.16,6.84a.84.84,0,0,0,1.28-.71v-13.69a.84.84,0,0,0-1.28-.72L520.08,1477A.84.84,0,0,0,520.08,1478.38Z"/><path class="cls-4" d="M616.67,1477l-11.16-6.85a.84.84,0,0,0-1.28.72v13.69a.84.84,0,0,0,1.28.71l11.16-6.84A.84.84,0,0,0,616.67,1477Z"/><path class="cls-4" d="M568,1538.66a18.5,18.5,0,1,0-18.5-18.5A18.5,18.5,0,0,0,568,1538.66Zm-6.44-22.94h13.69a.84.84,0,0,1,.71,1.28l-6.84,11.16a.83.83,0,0,1-1.43,0L560.82,1517A.83.83,0,0,1,561.53,1515.72Z"/><path class="cls-4" d="M567.66,1427.6l-6.84,11.16a.83.83,0,0,0,.71,1.28h13.69a.84.84,0,0,0,.71-1.28l-6.84-11.16A.84.84,0,0,0,567.66,1427.6Z"/><circle class="cls-1" cx="569.5" cy="1594.86" r="18.5"/><circle class="cls-1" cx="569.5" cy="1677.05" r="18.5"/><path class="cls-4" d="M549.08,1636a22,22,0,1,1-22-22A22,22,0,0,1,549.08,1636Zm-37,0a15,15,0,1,0,15-15A15,15,0,0,0,512.08,1636Z"/><circle class="cls-1" cx="612.36" cy="1635.95" r="18.5"/><path class="cls-4" d="M568.87,1588.07,562,1599.23a.83.83,0,0,0,.72,1.27h13.69a.83.83,0,0,0,.71-1.27l-6.84-11.16A.83.83,0,0,0,568.87,1588.07Z"/><path class="cls-4" d="M570.3,1684.65l6.84-11.16a.83.83,0,0,0-.71-1.27H562.74a.83.83,0,0,0-.72,1.27l6.85,11.16A.83.83,0,0,0,570.3,1684.65Z"/><path class="cls-4" d="M508.58,1636a18.5,18.5,0,1,0,18.5-18.49A18.5,18.5,0,0,0,508.58,1636Zm22.94-6.43v13.68a.84.84,0,0,1-1.28.72l-11.16-6.85a.83.83,0,0,1,0-1.42l11.16-6.85A.84.84,0,0,1,531.52,1629.52Z"/><path class="cls-4" d="M619.64,1635.65l-11.16-6.85a.84.84,0,0,0-1.28.72v13.68a.84.84,0,0,0,1.28.72l11.16-6.85A.82.82,0,0,0,619.64,1635.65Z"/></g></svg>